<svg width="88" height="51" viewBox="0 0 88 51" fill="none" xmlns="http://www.w3.org/2000/svg">
<path d="M21.3125 13.879H37.6644V15.1215H22.8114V24.4724H36.7787V25.7148H22.8114V35.9812H37.8347V37.2237H21.3125V13.879ZM39.1293 13.879H40.8667L48.5657 24.1454L56.4351 13.879L67.1387 0.838318L49.5536 25.2244L58.6154 37.2237H56.8098L48.5657 26.3033L40.2875 37.2237H38.5161L47.6459 25.2244L39.1293 13.879ZM59.2626 15.1215V13.879H77.8971V15.1215H69.3123V37.2237H67.8133V15.1215H59.2626ZM0.855469 13.879H2.72913L28.5658 50.8383L17.8888 37.2237L2.42253 15.6446L2.3544 37.2237H0.855469V13.879ZM77.746 35.6063C77.4398 35.6063 77.2101 35.3795 77.2101 35.0863C77.2101 34.7932 77.4398 34.5664 77.746 34.5664C78.0559 34.5664 78.282 34.7932 78.282 35.0863C78.282 35.3795 78.0559 35.6063 77.746 35.6063ZM79.2189 34.2383H80.021C80.0319 34.6536 80.3491 34.9328 80.8157 34.9328C81.3371 34.9328 81.6324 34.6327 81.6324 34.0708V30.5113H82.449V34.0743C82.449 35.0863 81.8366 35.6691 80.823 35.6691C79.8715 35.6691 79.2189 35.1038 79.2189 34.2383ZM83.5172 34.193H84.3266C84.3959 34.6711 84.8844 34.9747 85.588 34.9747C86.2442 34.9747 86.7255 34.6501 86.7255 34.2034C86.7255 33.8196 86.4192 33.5892 85.7229 33.4322L85.0448 33.2752C84.0933 33.0623 83.6594 32.6226 83.6594 31.8828C83.6594 30.9859 84.425 30.3892 85.5734 30.3892C86.6416 30.3892 87.4218 30.9859 87.4692 31.8339H86.6744C86.5979 31.3698 86.175 31.0802 85.5625 31.0802C84.9172 31.0802 84.487 31.3768 84.487 31.8304C84.487 32.1899 84.7641 32.3958 85.4495 32.5493L86.0292 32.6854C87.1083 32.9262 87.5531 33.345 87.5531 34.1022C87.5531 35.0654 86.7729 35.6691 85.526 35.6691C84.3594 35.6691 83.5756 35.0933 83.5172 34.193Z" fill="black"/>
</svg>
