<svg width="45" height="50" viewBox="0 0 45 50" fill="none" xmlns="http://www.w3.org/2000/svg">
<g clip-path="url(#clip0_196_239)">
<path fill-rule="evenodd" clip-rule="evenodd" d="M28.4619 35.433C20.446 35.433 18.7655 31.7709 18.7655 28.6662C18.7655 28.5259 18.8212 28.3914 18.9204 28.2922C19.0196 28.193 19.1541 28.1372 19.2944 28.1372H21.6626C21.7885 28.1377 21.9101 28.183 22.0055 28.265C22.101 28.3471 22.1641 28.4605 22.1834 28.5848C22.5415 30.9977 23.6035 32.2144 28.4538 32.2144C32.3153 32.2144 33.9551 31.3314 33.9551 29.2969C33.9551 28.1169 33.4872 27.2624 27.4894 26.6561C22.4723 26.1597 19.3514 25.057 19.3514 21.0409C19.3514 17.3462 22.4683 15.1449 27.6929 15.1449C33.5604 15.1449 36.4657 17.1794 36.8319 21.5576C36.8378 21.6316 36.8282 21.7061 36.8036 21.7761C36.7791 21.8462 36.7402 21.9104 36.6895 21.9645C36.6371 22.0196 36.574 22.0632 36.5039 22.0927C36.4339 22.1221 36.3585 22.1366 36.2826 22.1354H33.9429C33.824 22.1357 33.7085 22.0956 33.6153 22.0217C33.5222 21.9478 33.4569 21.8444 33.4302 21.7285C32.8565 19.1935 31.473 18.3797 27.7051 18.3797C23.4896 18.3716 22.9972 19.8405 22.9972 20.9392C22.9972 22.2738 23.575 22.6644 29.2635 23.4172C34.952 24.1699 37.5724 25.2279 37.5724 29.1789C37.5724 33.1299 34.244 35.4574 28.4375 35.4574L28.4619 35.433ZM22.8019 50C22.1279 50.0004 21.4655 49.8236 20.8814 49.4873L14.7778 45.8659C13.8623 45.3532 14.3099 45.1742 14.611 45.0521C15.5817 44.7471 16.5111 44.3235 17.3779 43.7907C17.4503 43.7567 17.5303 43.7419 17.61 43.7476C17.6898 43.7533 17.7668 43.7793 17.8337 43.8233L22.5334 46.6105C22.6213 46.6565 22.719 46.6805 22.8182 46.6805C22.9174 46.6805 23.0151 46.6565 23.103 46.6105L41.4136 36.0311C41.4993 35.9797 41.5703 35.907 41.6195 35.82C41.6687 35.7329 41.6945 35.6347 41.6943 35.5347V14.4165C41.6947 14.315 41.6686 14.215 41.6187 14.1266C41.5687 14.0381 41.4967 13.9642 41.4095 13.912L23.099 3.33255C23.0131 3.2825 22.9155 3.25614 22.8162 3.25614C22.7168 3.25614 22.6192 3.2825 22.5334 3.33255L4.22283 13.912C4.13497 13.9627 4.06203 14.0357 4.01131 14.1235C3.9606 14.2114 3.93391 14.311 3.93393 14.4125V35.5713C3.93369 35.6712 3.95991 35.7694 4.00995 35.8559C4.05998 35.9424 4.13202 36.0141 4.21876 36.0637L9.23585 38.9608C11.9499 40.3076 13.6385 38.7004 13.6385 37.0891V16.2191C13.638 16.1491 13.6514 16.0798 13.6781 16.0151C13.7047 15.9504 13.744 15.8917 13.7937 15.8424C13.8433 15.7931 13.9023 15.7542 13.9672 15.7281C14.0321 15.702 14.1016 15.689 14.1716 15.6901H16.4868C16.5564 15.6896 16.6255 15.7029 16.6899 15.7293C16.7543 15.7557 16.8128 15.7946 16.8621 15.8439C16.9113 15.8931 16.9502 15.9516 16.9766 16.016C17.003 16.0805 17.0163 16.1495 17.0158 16.2191V37.0972C17.0158 40.7308 15.0342 42.7938 11.5918 42.7938C10.5339 42.7938 9.69564 42.7938 7.36817 41.6463L2.53826 38.8957C1.95419 38.5552 1.46954 38.0676 1.13257 37.4814C0.795604 36.8953 0.61808 36.2311 0.617682 35.555L0.617682 14.3962C0.616439 13.7198 0.79327 13.055 1.1304 12.4685C1.46753 11.8821 1.95309 11.3948 2.53826 11.0555L20.8773 0.4761C21.4683 0.153794 22.1308 -0.0150909 22.804 -0.0150909C23.4772 -0.0150909 24.1396 0.153794 24.7306 0.4761L43.0412 11.0555C43.6303 11.3961 44.119 11.8864 44.4577 12.4766C44.7964 13.0668 44.9731 13.736 44.9699 14.4165V35.5754C44.9683 36.2512 44.7902 36.9149 44.4534 37.5008C44.1165 38.0868 43.6326 38.5746 43.0493 38.916L24.7388 49.4955C24.1518 49.8322 23.4868 50.009 22.8101 50.0082L22.8019 50Z" fill="black"/>
</g>
<defs>
<clipPath id="clip0_196_239">
<rect width="44.3522" height="50" fill="white" transform="translate(0.617188)"/>
</clipPath>
</defs>
</svg>
